<svg width="572" height="579" viewBox="0 0 572 579" fill="none" xmlns="http://www.w3.org/2000/svg">
<g clip-path="url(#clip0_14_142)">
<path d="M431.845 151.158C434.238 70.1322 370.438 2.45602 289.36 0.065105C208.282 -2.32581 140.562 61.4319 138.169 142.524C135.777 223.549 199.576 291.225 280.721 293.616C361.732 295.941 429.453 232.183 431.845 151.158Z" fill="white"/>
<path d="M231.01 278.341C230.678 275.286 227.754 276.946 226.757 274.622C225.494 271.832 228.552 273.028 229.216 272.032C229.216 272.032 229.881 267.98 229.881 267.914C229.947 267.648 228.352 267.183 228.552 267.051C229.216 265.789 229.881 267.648 230.147 267.848C230.811 268.313 229.947 266.652 228.95 266.121C228.618 265.855 226.425 263.73 227.156 263.132C227.555 262.8 232.074 265.988 232.14 263.132C232.207 262.202 230.678 260.077 230.878 259.081C230.811 259.28 238.919 260.144 238.985 257.354C238.985 256.491 240.979 254.166 239.451 253.635C239.384 253.635 235.862 249.451 235.862 249.384C235.862 249.717 240.846 250.58 241.046 250.646C243.039 251.244 247.824 246.661 246.827 244.071C246.761 243.938 247.226 240.153 248.489 241.016C248.755 241.348 246.894 243.739 247.691 243.739C249.486 243.806 251.612 234.242 251.346 233.445C249.951 228.663 256.065 228.995 256.862 227.667C258.192 225.675 258.723 225.608 261.98 225.741C263.242 225.807 266.765 219.897 266.831 218.236C266.898 216.642 267.03 206.016 267.894 204.754C270.752 200.902 279.923 192.135 274.141 187.154C273.477 186.557 271.815 187.221 271.084 186.756C269.157 185.494 267.961 182.572 265.502 181.841C263.442 181.177 258.192 181.974 257.062 181.443C257.128 181.443 257.328 178.321 256.397 178.321C256.131 178.52 255.866 178.786 255.666 179.052C255.799 173.938 248.755 178.454 247.691 180.314C247.824 178.786 251.546 173.871 246.96 174.668C246.761 174.735 245.698 166.034 243.97 166.034C242.973 166.034 242.175 163.511 240.913 163.245C239.451 162.979 237.989 162.249 236.394 162.116C234.931 162.05 231.609 159.858 231.01 160.721C232.14 156.471 228.153 157.666 226.624 156.072C226.89 156.471 227.355 152.021 225.428 153.482C224.963 153.814 223.9 152.884 223.501 152.087C223.833 152.021 225.494 152.087 225.494 151.623C225.295 150.759 214.463 153.416 213 151.091C214.197 150.029 207.75 146.907 209.811 149.564C208.747 150.294 207.817 149.697 207.551 149.697C207.551 149.697 206.886 150.693 206.82 150.892C206.82 150.029 208.681 146.509 206.753 147.438C205.624 147.372 203.63 149.564 201.969 149.497C200.506 149.564 196.785 156.869 196.386 156.736C195.057 156.338 195.123 153.416 192.664 153.349C191.734 153.349 189.607 154.611 188.212 154.545C185.753 154.478 182.364 148.966 184.357 147.04C185.952 145.247 186.55 140.664 184.091 140.266C183.493 140.266 182.231 138.473 180.17 139.27C179.174 139.602 176.715 139.07 175.784 138.738C177.379 137.011 177.579 134.421 179.041 132.628C180.769 130.636 182.031 127.315 179.838 126.784C176.914 125.854 171.73 129.839 171.797 132.761C171.797 133.093 166.081 132.761 165.55 133.624C165.417 133.956 162.692 129.307 162.293 128.842C160.898 126.784 161.895 124.393 162.094 121.935C162.493 115.228 166.347 111.708 170.866 108.985C170.866 109.051 175.651 109.449 176.249 109.051C177.047 110.911 179.838 110.446 179.24 109.715C180.104 109.715 180.038 110.911 180.436 111.043C182.098 111.508 180.436 109.649 180.237 109.449C181.167 108.785 182.762 108.32 183.892 107.191C183.892 107.523 183.493 108.055 183.493 108.254C183.493 108.32 186.285 107.789 186.75 108.121C188.611 108.52 187.414 110.446 189.807 109.184C192.864 106.793 191.867 114.497 191.535 113.966C191.867 114.431 192.133 113.7 192.332 113.634C192.332 113.7 192.266 116.091 192.465 116.157C192.332 116.224 192.066 116.357 192.133 116.556C192.133 116.622 193.794 120.674 194.592 119.611C196.187 117.552 196.984 114.165 196.32 111.774C194.858 106.793 201.836 99.8194 206.687 99.4873C207.086 99.4873 210.608 96.4323 208.947 96.3659C210.475 94.3734 208.814 94.9712 209.079 93.9749C209.279 93.5765 210.94 89.1931 211.871 89.1931C211.738 89.3259 209.811 92.9123 210.874 92.6467C210.342 92.6467 209.877 93.9085 210.143 94.2406C210.94 95.1704 212.868 89.7908 212.868 89.3924C212.868 89.3924 213.732 90.7206 213.399 90.6542C214.994 90.7206 215.925 87.1343 216.456 86.4701C216.722 86.603 220.71 86.603 220.111 85.806C220.045 85.7396 219.846 85.7396 219.58 85.7396C220.51 85.6067 221.374 85.4075 221.64 84.6769C221.507 84.6105 222.504 85.1418 222.969 85.1418C222.703 85.2747 222.305 85.4075 222.305 85.5403C222.371 86.4037 226.026 83.6143 224.365 83.5479C224.431 83.5479 223.7 84.3449 223.501 84.4777C223.501 83.9464 223.036 83.5479 223.102 83.2822C223.501 81.6883 227.222 80.0944 228.817 78.9653C228.817 79.1646 227.754 80.0279 228.419 80.0944C229.349 80.0944 233.868 78.0355 234.2 77.2385C234.134 78.3676 236.526 76.8401 237.191 76.3087C237.058 76.5744 235.928 77.1057 235.928 77.1721C235.928 77.7699 237.523 77.1721 237.656 77.1057C236.859 77.5706 234.865 78.6997 233.602 78.6997C232.207 78.6332 232.738 82.4853 234.267 81.0242C235.463 80.5593 235.995 79.0981 236.925 78.6997C237.058 78.8325 237.39 79.4966 237.191 79.4966C239.318 79.563 246.03 75.4454 244.634 75.3789C244.701 75.2461 246.03 73.9842 244.9 73.9842C243.637 73.9178 242.773 76.2423 242.242 76.7736C242.109 76.7736 242.042 76.8401 241.976 76.8401C241.311 76.7072 239.517 76.5744 238.587 75.7774C236.925 73.7186 239.583 72.7224 239.251 71.9918C239.318 72.0582 235.928 71.9254 235.662 71.7262C236.46 71.7926 239.517 72.0582 240.182 70.7299C242.574 65.9481 227.355 73.7186 227.422 73.7186C230.612 71.6597 233.735 69.3352 236.859 67.8077C240.049 66.2802 249.02 70.0658 251.28 65.8817C252.809 65.3504 254.736 65.2175 256.53 64.3542C258.856 62.9595 257.926 59.7716 255.733 59.3731C256.331 59.3067 256.796 59.1738 257.062 58.8418C257.062 58.8418 256.264 57.5135 256.065 57.3807C255.799 57.5135 253.407 57.5799 253.074 57.3142C252.21 56.7165 253.207 55.3882 251.812 54.8569C252.144 54.5913 253.54 53.7943 253.407 53.263C253.207 53.0637 253.008 53.3294 252.809 53.3294C253.207 52.8645 251.945 46.3559 252.011 46.4223C252.343 46.6215 245.099 50.4072 244.767 50.9385C244.501 50.3407 242.109 45.8246 244.368 45.2268C243.504 45.094 241.91 44.6291 241.91 44.6291C242.175 44.4963 242.84 44.3635 242.906 43.965C243.039 41.7069 231.476 41.3748 233.669 44.0314C232.805 44.4963 230.545 47.0864 230.08 48.1491C229.216 50.0087 228.086 48.2155 229.415 51.0713C230.545 53.5286 225.893 55.6539 224.498 56.3844C221.839 57.8456 221.308 56.7829 220.842 59.7716C220.51 61.8304 219.38 62.561 218.516 64.2878C218.649 63.0259 216.855 63.9557 216.124 64.0221C216.589 63.2915 216.058 62.561 215.26 62.3617C215.659 62.2289 220.311 52.7317 213.067 56.0524C214.529 54.1928 205.757 52.0675 204.361 52.0675C204.494 51.8683 206.089 48.946 205.823 48.7468C204.627 47.6842 202.5 48.7468 205.557 46.2231C206.488 45.5589 209.146 42.5703 210.475 42.8359C210.674 42.9688 213.864 41.1092 214.396 41.242C219.048 42.5703 213.931 38.9175 213.333 38.5854C215.592 39.316 217.121 40.2458 218.915 38.3862C219.513 40.5114 225.627 36.8586 224.763 36.3937C225.627 35.9953 226.691 35.5303 227.555 35.3975C225.561 36.8586 223.966 38.7847 222.172 39.9137C225.494 39.9137 222.969 40.0465 223.899 40.8435C225.893 42.371 228.286 36.9251 228.817 39.9137C231.741 40.9763 233.204 40.445 230.745 38.9175C232.207 38.3862 228.485 35.1319 228.817 35.1319C228.485 35.1319 228.552 36.5266 227.953 36.6594C228.552 35.9288 228.286 35.1983 227.887 34.667C228.884 34.6005 231.01 36.4601 231.077 36.2609C231.276 35.9288 230.545 35.1983 230.346 35.0655C230.678 34.7998 231.343 35.796 231.409 34.5341C232.14 35.796 237.191 32.9402 236.394 32.3425C236.394 32.3425 238.188 29.8851 237.922 29.0217C238.52 30.1508 243.571 28.6897 244.036 27.4278C244.568 27.9591 244.767 27.9591 245.365 28.2248C245.299 28.2912 244.767 28.8225 244.834 28.9553C244.834 29.0217 246.827 29.6195 246.761 29.6195C246.761 29.7523 246.628 29.8187 246.628 29.9515C246.163 30.2172 244.767 29.5531 244.834 30.6157C244.834 31.2798 246.296 30.6157 246.495 30.6157C245.432 31.7447 247.093 31.0806 247.558 30.8813C247.558 31.147 247.492 31.4791 247.492 31.8111C247.16 31.8111 246.163 31.6119 246.296 32.4089C246.362 32.8074 249.087 33.3387 247.957 31.6783C248.024 31.6119 248.09 31.4791 248.157 31.3462C248.157 31.147 249.884 33.6043 248.755 33.6707C246.827 33.87 244.767 35.0654 244.701 36.5266C243.039 37.4564 237.324 35.3975 236.659 38.1205C236.194 40.1793 242.773 38.1205 242.574 38.1205C243.305 38.1205 243.438 39.9801 243.637 40.5114C244.103 41.5741 248.555 44.2306 251.28 44.297C252.875 44.3635 249.486 40.6443 249.353 40.445C250.084 40.445 253.074 42.039 253.207 42.7695C253.805 45.2268 254.869 40.6443 254.603 40.7107C254.669 40.7107 254.669 40.7107 254.736 40.7107C255.6 42.6367 255.533 40.1129 255.201 39.2495C255.4 39.2495 255.533 39.7145 255.866 39.7145C256.264 39.7145 253.606 36.4601 253.274 36.4601C253.34 33.2723 258.258 40.445 259.521 36.8586C260.584 37.9213 262.977 35.7296 263.907 35.1319C263.907 35.0654 263.907 35.0654 263.907 34.999C263.309 34.7334 256.597 31.147 256.597 31.2134C256.464 30.5493 259.919 30.5493 259.919 30.0844C259.919 30.018 258.657 29.5531 258.391 29.5531C258.391 29.4866 258.457 29.4202 258.457 29.2874C258.79 29.2874 259.454 29.6859 259.72 29.2874C260.318 28.0255 258.192 28.424 257.859 28.5568C257.926 28.3576 259.056 27.8927 258.856 27.5606C258.457 26.6308 253.739 24.9041 253.074 26.3652C252.609 24.3727 251.413 24.8376 250.815 23.7086C250.881 21.2513 250.15 23.5094 247.492 21.5833C246.362 20.7864 246.628 22.9116 246.628 22.8452C245.897 24.3727 249.419 23.2437 249.619 23.4429C249.884 23.9078 244.435 24.3727 244.435 24.5056C244.435 24.0407 246.296 22.8452 246.296 21.9818C246.296 20.9856 237.523 22.7124 237.058 24.6384C236.925 25.1033 238.454 25.0369 238.321 25.4354C233.137 25.6346 241.577 21.5833 241.577 21.5169C241.112 19.8566 230.678 23.1109 230.612 25.701C230.612 25.701 233.27 26.0331 233.669 26.2323C224.232 27.0957 238.254 28.3576 238.188 28.2248C238.188 29.0882 235.596 28.3576 235.197 28.3576C233.071 28.2912 234.068 29.9515 234.001 30.018C233.735 30.35 230.346 31.6783 230.014 31.8111C229.814 31.8111 230.944 31.0142 230.412 31.0142C229.814 31.0142 228.153 32.2096 229.349 32.276C227.355 33.9364 226.358 31.2134 228.086 31.2798C229.881 31.7447 228.684 29.7523 227.355 29.0882C227.355 27.8263 224.564 28.4904 224.431 28.3576C227.488 26.4316 225.561 27.4942 225.694 24.3727C227.488 23.9078 234.134 22.978 235.064 21.3841C235.064 21.3177 235.064 21.1849 235.064 21.1184C234.333 18.5283 226.558 20.9192 225.96 21.849C225.096 23.1109 221.042 26.2323 221.374 26.2323C221.042 26.3652 219.713 26.4316 219.513 26.7637C219.048 27.8263 221.906 28.2912 222.105 28.424C221.773 28.5568 219.513 28.8889 219.513 29.4202C219.779 29.6195 220.045 29.6859 220.377 29.6859C220.311 29.7523 220.311 29.8851 220.377 29.9515C219.846 30.2172 215.393 31.6783 215.991 32.276C215.858 32.2096 215.725 32.0104 215.526 32.0104C215.659 31.6783 217.32 30.5493 217.32 30.5493C217.32 30.2836 215.858 30.4829 215.592 30.1508C215.659 29.9515 219.979 29.0217 220.178 28.5568C220.71 27.4278 212.868 27.8263 213.133 29.221C213.333 29.8851 214.595 29.1546 214.928 29.5531C211.937 31.0806 209.678 31.944 204.76 30.35C206.554 29.8187 204.826 29.6195 204.427 29.1546C204.56 29.1546 199.51 28.6897 199.111 29.7523C198.779 30.2836 200.041 30.4829 200.241 30.5493C200.44 30.4164 198.114 32.6745 198.712 32.4753C198.646 32.4753 198.114 32.3425 198.114 32.276C198.313 31.7447 198.114 30.6821 197.051 30.7485C197.184 30.5493 198.313 30.35 198.247 30.1508C198.247 30.0844 197.117 30.2172 195.655 30.4164C169.006 50.8721 149.467 80.2272 141.692 114.231C141.891 114.431 142.024 114.63 142.09 114.829C142.489 115.493 140.628 116.357 141.692 117.021C142.423 117.486 143.22 118.017 143.419 118.88C143.685 119.877 145.014 121.803 145.679 122.732C147.473 125.721 145.48 127.049 145.812 129.175C146.476 132.96 154.651 136.547 157.641 137.676C160.565 138.871 160.964 138.207 164.154 138.008C165.949 138.473 168.54 142.391 169.471 142.325C171.199 142.391 174.854 144.45 177.113 144.516C178.775 144.583 179.506 152.951 180.968 153.017C181.167 152.685 181.3 152.287 181.433 151.955C183.294 152.021 183.427 156.803 185.022 156.869C185.155 156.869 186.351 154.744 187.348 156.338C187.348 157.334 186.55 156.803 186.417 157.002C186.285 157.201 186.75 157.932 186.816 157.932C187.148 157.932 192.399 157.666 189.408 155.94C190.272 155.541 192.066 153.416 192.797 154.877C193.063 155.541 195.057 159.393 194.858 159.792C193.728 161.85 194.592 165.038 194.858 165.902C195.389 167.031 189.74 169.754 191.468 171.016C188.611 172.543 189.94 173.34 188.212 175.133C186.816 176.462 187.547 181.111 189.209 179.052C188.677 182.173 185.886 182.572 187.481 185.56C188.81 188.217 185.288 184.099 189.342 188.615C189.94 189.279 191.069 191.471 191.468 192.335C192.332 194.194 192.797 196.984 193.994 198.511C196.718 202.695 197.582 206.547 202.035 209.469C205.823 211.86 209.611 213.521 209.478 218.568C209.412 221.823 209.611 224.678 209.678 227.733C209.678 230.257 208.814 234.375 209.279 237.098C209.212 238.891 210.01 245.4 210.94 246.794C211.273 247.193 210.608 254.432 210.276 254.764C210.076 254.897 209.412 254.631 209.279 254.897C209.279 254.897 212.402 264.726 212.735 264.859C212.535 264.925 212.137 264.46 212.004 264.66C211.073 265.523 213.798 270.039 213.931 267.715C213.931 267.914 212.801 264.128 213.798 264.46C214.795 264.593 215.792 270.239 215.061 270.903C214.529 270.903 214.33 269.442 213.665 269.375C214.13 269.375 213.532 273.692 213.532 275.352C213.665 275.419 213.798 275.485 213.931 275.552C213.997 275.419 214.064 275.22 214.064 275.153C214.463 275.817 216.39 275.884 216.456 274.688C216.789 275.153 217.387 276.548 217.121 277.079C216.855 277.013 216.39 276.681 216.058 276.614C220.311 278.872 224.697 280.931 229.15 282.724C229.349 282.193 230.878 276.747 231.01 278.341ZM254.071 59.3067C253.872 59.3731 253.739 59.5059 253.54 59.6387C253.672 59.5059 253.872 59.3731 254.071 59.3067ZM251.413 60.3029C252.21 59.9044 252.742 59.7052 253.407 59.7052C252.875 60.3029 251.413 60.3029 251.413 60.3029C251.546 60.2365 251.479 60.2365 251.413 60.3029ZM219.247 85.6067C218.849 85.6732 218.45 85.7396 218.317 85.7396C218.583 85.6732 218.915 85.6732 219.247 85.6067ZM245.166 40.0465C243.837 40.7771 245.83 39.3824 245.166 40.0465V40.0465ZM239.318 23.8414C239.451 23.8414 239.318 23.8414 239.318 23.8414C239.517 23.9078 239.716 24.1071 239.318 23.8414ZM225.893 28.8225C225.893 28.8225 225.96 28.8225 226.026 28.8225C225.76 29.1546 225.561 29.7523 225.494 30.6821C225.362 30.35 225.627 28.9553 225.893 28.8225ZM223.567 35.9288C222.371 35.9952 220.776 34.8662 220.311 34.8662C221.839 34.7334 222.371 35.2647 223.567 35.9288ZM213.798 31.0142C215.127 31.6783 213.333 31.2134 213.798 31.0142C213.798 31.0142 213.599 31.0806 213.798 31.0142ZM192.532 115.958C192.532 115.892 192.598 115.892 192.598 115.759C192.664 115.825 192.598 115.892 192.532 115.958ZM179.506 108.055C180.569 106.926 179.107 108.719 179.506 108.055V108.055ZM181.898 149.032C181.765 149.165 181.898 149.099 181.898 149.032C181.633 149.232 180.636 148.634 180.17 148.833C180.503 148.7 180.237 147.571 179.971 147.571C180.237 147.571 182.696 148.501 181.898 149.032C181.965 149.032 181.965 149.032 181.898 149.032ZM207.684 153.814C207.617 153.947 207.617 153.881 207.684 153.814C205.757 156.139 206.82 151.689 206.953 151.224C206.953 151.955 208.415 152.884 207.684 153.814C207.75 153.748 207.75 153.748 207.684 153.814ZM216.323 273.891C216.323 273.891 216.39 274.024 216.323 273.891V273.891ZM215.659 271.368C216.058 270.836 214.861 272.497 215.659 271.368V271.368ZM215.792 272.762C215.925 273.094 216.124 273.426 216.124 273.626C215.858 273.36 215.792 273.094 215.792 272.762Z" fill="url(#paint0_linear_14_142)"/>
<path d="M301.123 45.0276C301.123 45.2933 300.591 46.688 300.525 46.9536C300.791 46.7544 301.522 45.9574 301.788 46.0238C301.788 46.7544 299.86 47.2857 300.06 47.7506C300.392 48.4147 301.256 47.0864 301.389 47.0864C301.323 47.5513 300.724 48.1491 300.924 48.6804C301.19 49.0789 302.452 47.5513 302.585 47.5513C303.117 47.9498 300.99 50.4736 304.446 49.2117C304.778 49.8094 303.449 50.7392 305.177 50.7392C305.111 53.3294 301.721 51.4034 301.721 52.5324C301.921 52.7317 302.186 52.7981 302.452 52.6652C302.319 53.3294 301.588 52.9309 301.987 53.8607C302.186 54.1264 302.585 53.4622 302.918 53.595C302.652 53.9935 300.924 55.2554 300.99 55.5211C301.19 56.1188 303.848 56.2516 304.579 56.1852C304.38 56.3844 299.262 57.9784 299.661 58.8418C299.595 58.5761 311.69 57.8456 311.491 56.6501C311.424 56.4509 310.361 56.2516 310.294 56.2516C311.092 54.9897 313.817 52.3996 309.829 53.3958C310.826 52.3996 307.902 48.2155 307.237 47.8834C305.842 46.9536 305.642 46.8208 306.639 45.891C309.63 43.0352 305.044 45.0276 304.247 43.8986C304.38 44.0978 307.636 41.3084 306.971 40.8435C306.772 40.5778 305.443 40.7107 305.31 40.9099C305.111 40.9763 305.642 41.3084 305.709 41.5076C305.443 41.9061 302.652 42.9023 302.12 43.3008C301.721 43.5001 301.323 43.3008 301.522 44.1642C300.857 43.4337 300.591 44.0314 299.794 44.0978C299.86 44.3635 299.927 45.9574 299.728 46.3559C300.126 46.1566 300.791 45.1604 301.123 45.0276Z" fill="url(#paint1_linear_14_142)"/>
<path d="M299.728 53.7943C299.993 53.3958 300.459 51.337 299.927 51.0049C304.047 47.9498 296.405 47.3521 296.072 49.4109C296.072 49.6766 296.272 49.743 296.471 49.743C294.943 50.2743 292.882 52.3996 294.61 52.3332C289.028 55.8531 298.133 56.5837 299.728 53.7943Z" fill="url(#paint2_linear_14_142)"/>
<path d="M353.159 17.7977C353.159 17.7977 354.223 18.329 354.356 18.6611C352.295 18.3955 352.295 18.6611 350.833 19.5909C351.232 16.4694 348.707 19.9894 348.242 20.72C347.643 19.0596 346.846 19.7902 346.846 20.9856C346.713 21.052 346.647 21.1849 346.58 21.2513C346.381 20.5871 345.982 20.3215 345.583 21.1184C345.583 20.9192 345.783 20.3879 345.65 20.2551C345.783 20.4543 344.321 20.3215 344.055 20.2551C344.786 20.3879 340.333 22.7788 341.064 22.3803C340.998 22.5796 340.998 22.7788 341.064 22.978C341.396 23.3765 343.722 22.0482 344.321 21.9818C344.321 24.9041 338.406 27.0957 337.941 28.2912C337.143 30.2836 333.687 30.2836 333.355 30.8813C332.89 31.7447 333.754 31.5455 333.289 32.3425C332.358 31.6783 330.364 33.2058 329.035 33.2058C327.042 33.2058 329.966 39.7144 330.032 39.7809C327.44 42.7695 336.08 42.5703 337.143 39.4488C337.409 40.445 341.197 46.0238 339.868 46.0238C337.276 45.9574 338.605 47.9498 338.605 48.7468C338.273 48.7468 337.941 48.8796 337.675 49.1453C337.475 50.4072 341.729 49.0789 339.602 48.4147C340.798 47.3521 342.327 47.7506 343.789 46.7544C343.058 47.02 349.571 44.2306 347.444 44.1642C347.178 44.1642 346.846 44.6291 346.779 44.7619C346.514 42.371 351.498 38.9175 350.235 38.1205C348.64 37.4564 346.514 36.1281 348.308 34.2685C348.64 34.0028 353.492 30.9478 353.758 30.35C354.422 28.8889 353.425 27.8263 356.416 27.4278C356.815 27.3614 360.337 28.4904 359.406 28.9553C355.818 28.8225 350.634 38.0541 355.485 37.9877C358.21 38.0541 363.66 38.519 367.182 39.0503C364.922 39.5152 355.087 39.5152 354.754 42.1054C354.754 41.9061 355.353 43.2344 355.22 43.168C356.017 42.5038 357.08 42.7695 357.213 41.6405C357.745 41.9725 358.542 42.8359 359.074 42.371C357.944 47.2193 353.758 40.7771 353.957 48.0826C354.023 51.5362 342.726 48.5476 342.659 50.9385C342.858 47.8834 338.871 51.4034 337.475 50.6064C338.605 49.8094 337.741 50.54 337.874 49.5438C333.82 49.2117 337.808 42.8359 337.143 42.8359C331.893 42.7031 334.02 49.0789 333.953 49.1453C334.02 49.6766 334.086 49.8758 334.219 50.4736C334.086 49.3445 326.377 53.8607 325.38 55.1226C324.516 56.3844 319.997 58.5097 318.867 59.3067C317.139 60.7678 317.139 58.9082 315.478 58.8418C315.412 58.9082 315.345 58.9082 315.279 58.9746C314.415 59.5059 317.272 61.4319 314.548 61.3655C313.75 61.3655 310.427 60.5021 309.962 61.5648C309.696 62.561 314.68 64.8191 315.279 66.4794C316.342 67.0107 315.412 72.7888 314.082 72.7888C312.155 72.7224 310.228 72.3903 308.101 72.3239C303.582 72.191 302.519 71.1284 301.323 75.1133C300.724 77.5042 299.993 80.4264 299.661 82.8173C300.392 84.1456 300.99 85.009 299.927 86.935C304.114 84.9426 304.38 89.7244 307.57 88.1969C310.427 86.5365 316.541 87.732 317.405 83.4151C317.472 83.1494 316.541 82.5517 316.408 82.1532C315.877 80.6257 319 80.2936 318.668 78.8325C318.601 78.6332 322.257 76.9729 322.722 76.7736C323.519 76.508 322.988 74.0506 324.317 73.3201C325.181 72.7224 327.307 73.9842 328.304 73.9842C331.959 74.1171 335.415 69.0032 335.216 74.8476C335.149 75.9767 336.611 74.7812 336.412 74.7148C337.874 74.7812 346.115 81.8875 346.048 83.88C345.184 86.4701 340.134 84.4113 339.735 85.1418C338.339 86.2709 341.529 87.732 342.327 87.7984C345.849 87.8648 342.46 88.0641 344.985 85.6731C345.384 87.0014 347.71 84.212 347.909 83.9464C348.707 82.5517 346.447 82.1532 346.979 81.4891C348.507 79.0981 348.175 82.0204 349.903 82.0204C352.628 82.0868 345.45 77.2385 345.849 77.8363C344.453 78.3012 340.267 71.5933 339.868 70.265C339.07 67.542 343.124 71.1948 343.656 70.7963C345.65 71.9254 345.517 74.8476 348.574 75.1133C350.568 75.3125 353.824 80.5592 352.96 81.8211C352.894 82.0868 352.428 81.3562 352.362 82.0204C352.295 84.0128 360.669 87.2671 360.802 87.2007C361.134 86.8686 360.47 86.0052 360.337 85.7396C360.603 85.8724 361.6 86.8686 361.865 86.0716C361.799 86.3373 356.881 80.6921 357.811 80.6921C358.542 80.6921 364.922 78.7661 365.055 80.9577C365.255 83.5479 362.331 83.88 365.454 82.8838C365.388 83.8135 363.926 86.0716 363.793 85.8724C364.258 86.4037 364.524 85.4075 364.657 85.4075C365.321 86.0052 365.055 86.3373 366.384 86.4037C366.384 86.5365 366.384 86.6694 366.384 86.8686C366.185 86.8022 365.653 86.3373 365.454 86.603C365.055 87.0679 366.584 88.0641 366.916 88.1969C366.517 88.1969 365.853 89.658 365.72 89.9237C366.783 89.0603 366.85 89.0603 367.913 88.7282C367.913 88.861 366.983 89.3923 366.85 89.5252C367.381 89.9901 367.448 89.2595 367.979 89.4588C367.913 89.9901 366.717 90.9199 367.514 91.252C368.445 91.4512 368.578 89.5916 369.043 89.2595C369.043 90.0565 369.774 89.7244 370.04 89.5252C369.973 91.9161 373.828 89.9901 375.29 90.0565C376.353 90.3886 382.401 91.1191 382.467 89.4588C382.6 89.5252 382.799 89.658 382.932 89.7244C383.065 89.8573 382.268 95.5689 382.135 96.0338C380.141 99.6202 381.204 100.484 377.483 101.945C377.815 101.812 372.033 101.48 372.166 101.48C369.84 101.413 367.115 102.011 364.457 100.55C363.46 100.085 357.944 97.1628 357.213 97.1628C352.694 97.6941 353.625 104.336 349.969 101.812C345.251 101.413 340.599 95.104 336.279 94.9712C334.219 94.9047 337.941 88.7946 337.143 87.4663C336.811 86.7358 327.175 86.7358 326.111 88.3961C323.586 86.8022 316.275 87.9977 314.082 90.3222C313.418 91.1855 309.63 91.1855 308.301 90.7871C303.25 89.4588 306.838 92.0489 301.987 94.0414C297.069 96.1002 298.797 99.6202 296.538 102.874C294.81 105.265 290.889 105.465 289.825 108.055C289.493 108.785 280.189 121.935 281.85 122.467C282.648 123.131 284.575 127.647 282.781 130.436C281.85 132.03 280.123 135.417 281.252 136.812C281.385 136.945 280.987 141.926 281.585 141.262C283.379 142.856 285.04 144.383 286.901 146.309C288.097 148.302 288.563 153.482 291.952 154.08C293.946 154.346 295.939 159.26 298.133 159.327C300.658 159.393 302.984 157.334 305.842 157.401C310.361 158.662 312.222 157.201 316.143 155.939C318.07 155.275 319.731 155.275 321.659 155.342C322.788 155.342 325.181 161.651 326.311 160.124C327.374 158.131 331.827 161.053 332.159 160.987C332.757 163.976 331.76 166.898 331.361 169.156C330.497 173.739 332.558 175.133 335.548 179.981C337.808 183.9 341.33 195.058 337.143 198.91C334.751 200.902 336.08 206.149 334.95 208.672C334.086 210.665 341.131 219.498 339.801 220.76C338.871 221.557 340.4 230.191 341.263 231.386C344.121 235.371 345.849 239.422 344.919 243.141C344.919 242.942 346.912 246.462 346.048 246.462C346.779 246.462 348.374 247.923 349.238 247.525C350.501 246.927 352.628 245.997 354.156 246.13C357.944 247.79 362.663 245.599 365.786 242.743C367.714 240.95 372.897 236.301 373.562 233.777C374.027 232.05 374.094 227.534 376.021 227.069C382.334 225.475 379.809 219.896 379.078 215.048C380.208 215.779 393.3 204.555 391.638 203.426C390.575 202.297 391.638 198.245 391.372 196.718C391.505 194.925 389.844 193.464 390.11 192.202C390.243 191.139 390.043 186.889 389.578 186.224C386.853 182.439 394.363 174.868 396.888 172.211C403.003 165.636 412.639 157.533 414.234 149.165C415.164 144.649 411.376 146.044 408.319 146.774C406.259 147.438 403.867 147.438 402.139 148.235C399.813 149.298 399.148 146.309 397.021 146.243C401.673 145.712 390.176 135.949 390.243 134.488C390.309 131.831 386.72 130.768 386.787 128.909C386.92 127.78 386.654 125.057 386.189 123.928C385.059 121.205 383.265 120.408 383.663 118.216C384.328 114.962 376.353 108.785 376.951 104.933C377.549 105.996 378.878 109.715 380.341 109.715C380.806 109.715 381.271 107.125 381.337 106.461C381.337 106.726 380.872 109.184 380.872 109.117C381.67 110.645 384.993 114.895 386.255 116.821C387.917 119.677 389.312 123.33 391.04 126.053C391.971 127.78 395.094 132.894 396.423 134.089C398.683 136.082 396.623 141.992 399.148 143.653C401.673 145.048 412.041 139.004 414.832 138.008C416.56 137.011 416.959 134.687 420.348 134.753C421.345 134.753 423.471 131.034 424.136 130.835C427.193 129.839 424.335 127.979 426.396 126.916C426.595 126.85 430.051 124.924 430.051 122.998C430.051 123.596 421.744 115.759 422.009 114.563C420.747 115.626 414.633 121.67 414.167 118.615C414.101 118.349 413.37 115.892 413.503 116.091C413.038 115.493 412.838 115.095 412.772 114.829C412.639 115.095 412.373 115.427 411.709 115.958C412.107 115.892 407.854 110.313 407.721 109.848C406.06 105 406.924 107.789 409.25 104.668C411.044 107.324 416.493 116.29 420.547 112.571C420.547 112.704 420.547 113.501 420.747 113.567C421.212 113.567 422.209 112.571 421.744 112.106C422.342 112.106 423.139 112.637 423.339 113.302C424.136 116.224 424.734 114.895 426.861 115.759C427.459 116.024 428.057 116.224 428.655 116.357C419.617 73.8514 392.104 37.9877 354.688 17.7977C353.957 17.5321 353.159 17.6649 353.159 17.7977Z" fill="url(#paint3_linear_14_142)"/>
<path d="M411.376 198.577C411.177 198.179 410.778 192.069 409.848 192.069C408.651 192.002 409.117 193.729 408.851 194.194C408.12 196.319 408.386 194.526 407.588 194.46C407.189 194.46 407.588 195.323 407.522 195.589C406.99 194.991 406.193 197.515 406.724 197.714C406.392 197.714 406.325 197.913 406.193 198.179C405.927 197.581 403.401 199.64 403.601 200.171C403.135 200.238 399.347 200.371 399.547 200.039C398.284 201.898 400.211 207.012 399.015 209.337C397.819 211.993 395.692 216.974 398.483 219.498C403.468 225.874 411.443 199.773 410.047 199.707C410.446 199.707 410.379 200.636 410.712 200.636C411.642 200.836 411.709 199.109 411.376 198.577C411.31 198.445 411.376 198.511 411.376 198.577Z" fill="url(#paint4_linear_14_142)"/>
<path d="M35.1601 147.39C37.0874 159.677 33.698 184.184 33.698 184.184L39.0811 218.254L61.0785 255.048L84.8703 275.636L70.3161 362.373C57.8221 337.468 11.2354 271.585 2.19717 237.448C-1.79028 222.438 0.868017 177.941 0.868017 177.941C0.868017 177.941 5.52004 142.94 13.1627 133.775C17.0837 129.193 32.0366 127.466 35.1601 147.39Z" fill="#F0B687"/>
<path d="M51.9074 139.952C55.8284 135.303 70.7814 133.576 73.9049 153.5C75.8321 165.787 72.4428 190.36 72.4428 190.36L77.8259 224.431L78.8892 226.224L79.2215 211.746C79.2215 211.746 83.2089 181.461 89.9211 173.491C93.3105 169.506 106.27 167.979 108.994 185.246C110.656 195.873 107.732 217.125 107.732 217.125L112.384 246.679L131.457 278.492C131.457 278.492 133.451 280.352 136.907 283.539C149.002 307.449 182.098 329.432 197.848 341.785C207.485 349.356 218.251 357.658 227.289 367.022L178.908 445.524L70.3826 362.373L76.1644 321.263C64.6673 298.018 38.2172 246.281 38.2172 246.281L39.6128 184.051C39.6128 184.051 44.1983 149.117 51.9074 139.952Z" fill="#F0B687"/>
<path d="M130.128 277.761C123.416 275.238 116.836 271.983 110.058 269.526L109.061 260.826C109.061 260.826 108.862 234.061 113.713 226.357C116.172 222.505 127.204 219.649 131.656 234.26C134.381 243.292 140.429 281.879 140.429 281.879C136.375 280.152 132.786 278.758 130.128 277.761Z" fill="#F0B687"/>
<path d="M240.846 398.967C242.773 404.347 269.024 392.525 268.027 389.337C261.182 368.085 250.35 348.692 231.941 332.819C209.478 313.426 170.8 306.253 147.939 288.056C135.245 277.961 125.277 265.873 114.909 253.454C107.732 244.82 102.614 236.784 91.1838 234.526C86.0001 233.529 80.1518 238.245 81.0158 243.691C82.8101 255.513 91.0509 262.22 98.4277 271.319C106.203 280.816 113.979 290.779 123.216 298.881C143.951 317.145 170.268 326.177 192.199 342.582C211.937 357.326 232.273 375.191 240.846 398.967Z" fill="#F0B687"/>
<path d="M164.088 593.96H272.546V420.486C272.546 420.486 272.48 396.311 266.698 385.485C261.714 376.187 252.609 365.295 237.324 355.599C203.563 334.147 106.668 319.337 106.668 319.337C106.668 319.337 88.7913 288.056 84.2057 277.894C68.854 243.624 53.6353 240.038 42.9356 244.621C33.4322 248.672 27.5839 262.287 34.429 279.156C39.4134 291.443 48.5845 312.297 48.5845 312.297L69.9174 361.908C94.5067 395.979 127.802 409.129 162.16 432.374C163.955 433.636 164.287 562.081 164.088 593.96Z" fill="#FFC89F"/>
<path opacity="0.5" d="M40.5432 280.219C40.5432 280.219 28.1156 253.919 45.3946 247.676C58.1544 243.027 72.3763 264.412 71.8447 265.209C71.2465 266.006 40.5432 280.219 40.5432 280.219Z" fill="#EDF0F2"/>
<path d="M536.848 147.39C534.921 159.677 538.31 184.184 538.31 184.184L532.927 218.254L510.93 255.048L487.138 275.636L501.692 362.373C514.252 337.468 560.839 271.585 569.877 237.448C573.865 222.438 571.207 177.941 571.207 177.941C571.207 177.941 566.555 142.94 558.912 133.775C554.924 129.193 539.972 127.466 536.848 147.39Z" fill="#F0B687"/>
<path d="M520.101 139.952C516.18 135.303 501.227 133.576 498.103 153.5C496.176 165.787 499.565 190.36 499.565 190.36L494.182 224.431L493.119 226.224L492.787 211.746C492.787 211.746 488.799 181.461 482.087 173.491C478.698 169.506 465.738 167.979 463.014 185.246C461.352 195.873 464.276 217.125 464.276 217.125L459.624 246.679L440.551 278.492C440.551 278.492 438.557 280.352 435.102 283.539C423.006 307.449 389.91 329.432 374.16 341.785C364.524 349.356 353.757 357.658 344.719 367.022L393.1 445.524L501.493 362.373L495.711 321.263C507.208 298.018 533.658 246.281 533.658 246.281L532.262 184.051C532.395 184.051 527.81 149.117 520.101 139.952Z" fill="#F0B687"/>
<path d="M441.88 277.761C448.592 275.238 455.172 271.983 461.95 269.526L462.947 260.826C462.947 260.826 463.147 234.061 458.295 226.357C455.836 222.505 444.804 219.649 440.352 234.26C437.627 243.292 431.579 281.879 431.579 281.879C435.633 280.152 439.222 278.758 441.88 277.761Z" fill="#F0B687"/>
<path d="M331.162 398.967C329.235 404.347 302.984 392.525 303.981 389.337C310.826 368.085 321.659 348.692 340.067 332.819C362.53 313.426 401.208 306.253 424.07 288.056C436.763 277.961 446.732 265.873 457.099 253.454C464.276 244.82 469.394 236.784 480.824 234.526C486.008 233.529 491.856 238.245 490.992 243.691C489.198 255.513 480.957 262.22 473.58 271.319C465.805 280.816 458.029 290.779 448.792 298.881C428.057 317.145 401.74 326.177 379.809 342.582C360.071 357.326 339.801 375.191 331.162 398.967Z" fill="#F0B687"/>
<path d="M407.987 593.96H299.462V420.486C299.462 420.486 299.595 396.311 305.31 385.485C310.228 376.187 319.399 365.295 334.684 355.599C368.445 334.147 465.34 319.337 465.34 319.337C465.34 319.337 483.15 288.056 487.736 277.894C503.088 243.624 518.306 240.038 529.072 244.621C538.576 248.672 544.424 262.287 537.579 279.156C532.595 291.443 523.424 312.297 523.424 312.297L502.091 361.908C477.501 395.979 444.206 409.129 409.848 432.374C408.053 433.636 407.721 562.081 407.987 593.96Z" fill="#FFC89F"/>
<path opacity="0.5" d="M531.531 280.219C531.531 280.219 543.959 253.919 526.68 247.676C513.92 243.027 499.765 264.412 500.296 265.209C500.762 266.006 531.531 280.219 531.531 280.219Z" fill="#EDF0F2"/>
</g>
<defs>
<linearGradient id="paint0_linear_14_142" x1="208.688" y1="19.95" x2="208.688" y2="282.724" gradientUnits="userSpaceOnUse">
<stop stop-color="#8BFAA0"/>
<stop offset="1" stop-color="#159674"/>
</linearGradient>
<linearGradient id="paint1_linear_14_142" x1="305.792" y1="40.6947" x2="305.792" y2="58.8418" gradientUnits="userSpaceOnUse">
<stop stop-color="#8BFAA0"/>
<stop offset="1" stop-color="#159674"/>
</linearGradient>
<linearGradient id="paint2_linear_14_142" x1="296.981" y1="48.2024" x2="296.981" y2="55.5006" gradientUnits="userSpaceOnUse">
<stop stop-color="#8BFAA0"/>
<stop offset="1" stop-color="#159674"/>
</linearGradient>
<linearGradient id="paint3_linear_14_142" x1="355.466" y1="17.6443" x2="355.466" y2="247.594" gradientUnits="userSpaceOnUse">
<stop stop-color="#8BFAA0"/>
<stop offset="1" stop-color="#159674"/>
</linearGradient>
<linearGradient id="paint4_linear_14_142" x1="404.333" y1="192.067" x2="404.333" y2="220.501" gradientUnits="userSpaceOnUse">
<stop stop-color="#8BFAA0"/>
<stop offset="1" stop-color="#159674"/>
</linearGradient>
<clipPath id="clip0_14_142">
<rect width="572" height="579" fill="white"/>
</clipPath>
</defs>
</svg>
