<svg width="57" height="54" viewBox="0 0 57 54" fill="none" xmlns="http://www.w3.org/2000/svg">
<path d="M34.6676 20.0674C37.1826 18.3277 38.9081 15.4888 38.2918 12.5125C37.7184 9.74355 36.8124 7.03509 35.569 4.44924C32.7222 -1.47101 24.6485 -1.47778 21.7078 4.39733C20.4134 6.98349 19.451 9.68639 18.8196 12.4437C18.1327 15.4438 19.8285 18.3145 22.375 20.0757C25.9761 22.5662 31.0667 22.558 34.6676 20.0674ZM19.479 25.3166C19.0595 25.0198 18.5799 24.7527 18.1304 24.4559C18.5799 24.7823 19.0595 25.0198 19.479 25.3166ZM41.8584 22.6338C34.2303 26.6406 22.7697 26.6406 15.1416 22.6338C13.5888 21.8181 11.9692 21.1131 10.293 20.5293C4.04713 18.354 -1.66418 24.0028 0.447286 30.2178C4.00576 40.6919 12.2224 48.9807 22.5959 52.6548C23.863 53.1129 25.1706 53.4909 26.5096 53.7886C27.8191 54.0798 29.1788 54.0674 30.4863 53.7684C31.8178 53.464 33.1176 53.0928 34.4041 52.6548C44.7776 48.9807 52.9942 40.6919 56.5527 30.2178C58.6642 24.0028 52.9528 18.354 46.707 20.5293C45.0308 21.1131 43.4111 21.8181 41.8584 22.6338Z" fill="white"/>
</svg>
