<svg width="222" height="48" viewBox="0 0 222 48" fill="none" xmlns="http://www.w3.org/2000/svg">
<path d="M29.5781 25.5L30.2344 21.1875H26.0625V18.375C26.0625 17.1562 26.625 16.0312 28.5 16.0312H30.4219V12.3281C30.4219 12.3281 28.6875 12 27.0469 12C23.625 12 21.375 14.1094 21.375 17.8594V21.1875H17.5312V25.5H21.375V36H26.0625V25.5H29.5781Z" fill="white"/>
<path d="M24 46C11.8497 46 2 36.1503 2 24H-2C-2 38.3594 9.6406 50 24 50V46ZM46 24C46 36.1503 36.1503 46 24 46V50C38.3594 50 50 38.3594 50 24H46ZM24 2C36.1503 2 46 11.8497 46 24H50C50 9.6406 38.3594 -2 24 -2V2ZM24 -2C9.6406 -2 -2 9.6406 -2 24H2C2 11.8497 11.8497 2 24 2V-2Z" fill="white"/>
<path d="M91.5156 19.125C92.4531 18.4219 93.2969 17.5781 93.9531 16.5938C93.1094 16.9688 92.125 17.25 91.1406 17.3438C92.1719 16.7344 92.9219 15.7969 93.2969 14.625C92.3594 15.1875 91.2812 15.6094 90.2031 15.8438C89.2656 14.8594 88 14.2969 86.5938 14.2969C83.875 14.2969 81.6719 16.5 81.6719 19.2188C81.6719 19.5938 81.7188 19.9688 81.8125 20.3438C77.7344 20.1094 74.0781 18.1406 71.6406 15.1875C71.2188 15.8906 70.9844 16.7344 70.9844 17.6719C70.9844 19.3594 71.8281 20.8594 73.1875 21.75C72.3906 21.7031 71.5938 21.5156 70.9375 21.1406V21.1875C70.9375 23.5781 72.625 25.5469 74.875 26.0156C74.5 26.1094 74.0312 26.2031 73.6094 26.2031C73.2812 26.2031 73 26.1562 72.6719 26.1094C73.2812 28.0781 75.1094 29.4844 77.2656 29.5312C75.5781 30.8438 73.4688 31.6406 71.1719 31.6406C70.75 31.6406 70.375 31.5938 70 31.5469C72.1562 32.9531 74.7344 33.75 77.5469 33.75C86.5938 33.75 91.5156 26.2969 91.5156 19.7812C91.5156 19.5469 91.5156 19.3594 91.5156 19.125Z" fill="white"/>
<path d="M82 46C69.8497 46 60 36.1503 60 24H56C56 38.3594 67.6406 50 82 50V46ZM104 24C104 36.1503 94.1503 46 82 46V50C96.3594 50 108 38.3594 108 24H104ZM82 2C94.1503 2 104 11.8497 104 24H108C108 9.6406 96.3594 -2 82 -2V2ZM82 -2C67.6406 -2 56 9.6406 56 24H60C60 11.8497 69.8497 2 82 2V-2Z" fill="white"/>
<path d="M134.188 33V18.9844H129.828V33H134.188ZM131.984 17.1094C133.391 17.1094 134.516 15.9375 134.516 14.5312C134.516 13.1719 133.391 12.0469 131.984 12.0469C130.625 12.0469 129.5 13.1719 129.5 14.5312C129.5 15.9375 130.625 17.1094 131.984 17.1094ZM150.453 33H150.5V25.3125C150.5 21.5625 149.656 18.6562 145.25 18.6562C143.141 18.6562 141.734 19.8281 141.125 20.9062H141.078V18.9844H136.906V33H141.266V26.0625C141.266 24.2344 141.594 22.5 143.844 22.5C146.094 22.5 146.141 24.5625 146.141 26.2031V33H150.453Z" fill="white"/>
<path d="M140 46C127.85 46 118 36.1503 118 24H114C114 38.3594 125.641 50 140 50V46ZM162 24C162 36.1503 152.15 46 140 46V50C154.359 50 166 38.3594 166 24H162ZM140 2C152.15 2 162 11.8497 162 24H166C166 9.6406 154.359 -2 140 -2V2ZM140 -2C125.641 -2 114 9.6406 114 24H118C118 11.8497 127.85 2 140 2V-2Z" fill="white"/>
<path d="M198 18.6094C195 18.6094 192.609 21.0469 192.609 24C192.609 27 195 29.3906 198 29.3906C200.953 29.3906 203.391 27 203.391 24C203.391 21.0469 200.953 18.6094 198 18.6094ZM198 27.5156C196.078 27.5156 194.484 25.9688 194.484 24C194.484 22.0781 196.031 20.5312 198 20.5312C199.922 20.5312 201.469 22.0781 201.469 24C201.469 25.9688 199.922 27.5156 198 27.5156ZM204.844 18.4219C204.844 17.7188 204.281 17.1562 203.578 17.1562C202.875 17.1562 202.312 17.7188 202.312 18.4219C202.312 19.125 202.875 19.6875 203.578 19.6875C204.281 19.6875 204.844 19.125 204.844 18.4219ZM208.406 19.6875C208.312 18 207.938 16.5 206.719 15.2812C205.5 14.0625 204 13.6875 202.312 13.5938C200.578 13.5 195.375 13.5 193.641 13.5938C191.953 13.6875 190.5 14.0625 189.234 15.2812C188.016 16.5 187.641 18 187.547 19.6875C187.453 21.4219 187.453 26.625 187.547 28.3594C187.641 30.0469 188.016 31.5 189.234 32.7656C190.5 33.9844 191.953 34.3594 193.641 34.4531C195.375 34.5469 200.578 34.5469 202.312 34.4531C204 34.3594 205.5 33.9844 206.719 32.7656C207.938 31.5 208.312 30.0469 208.406 28.3594C208.5 26.625 208.5 21.4219 208.406 19.6875ZM206.156 30.1875C205.828 31.125 205.078 31.8281 204.188 32.2031C202.781 32.7656 199.5 32.625 198 32.625C196.453 32.625 193.172 32.7656 191.812 32.2031C190.875 31.8281 190.172 31.125 189.797 30.1875C189.234 28.8281 189.375 25.5469 189.375 24C189.375 22.5 189.234 19.2188 189.797 17.8125C190.172 16.9219 190.875 16.2188 191.812 15.8438C193.172 15.2812 196.453 15.4219 198 15.4219C199.5 15.4219 202.781 15.2812 204.188 15.8438C205.078 16.1719 205.781 16.9219 206.156 17.8125C206.719 19.2188 206.578 22.5 206.578 24C206.578 25.5469 206.719 28.8281 206.156 30.1875Z" fill="white"/>
<path d="M198 46C185.85 46 176 36.1503 176 24H172C172 38.3594 183.641 50 198 50V46ZM220 24C220 36.1503 210.15 46 198 46V50C212.359 50 224 38.3594 224 24H220ZM198 2C210.15 2 220 11.8497 220 24H224C224 9.6406 212.359 -2 198 -2V2ZM198 -2C183.641 -2 172 9.6406 172 24H176C176 11.8497 185.85 2 198 2V-2Z" fill="white"/>
</svg>
