<svg width="789" height="229" viewBox="0 0 789 229" fill="none" xmlns="http://www.w3.org/2000/svg">
<g filter="url(#filter0_d_2_9)">
<path d="M52.564 120.912C54.052 120.912 55.396 121.236 56.596 121.884C57.796 122.508 58.732 123.456 59.404 124.728C60.1 126 60.448 127.548 60.448 129.372V141H57.208V129.84C57.208 127.872 56.716 126.372 55.732 125.34C54.748 124.284 53.404 123.756 51.7 123.756C49.972 123.756 48.592 124.296 47.56 125.376C46.552 126.456 46.048 128.028 46.048 130.092V141H42.772V114.36H46.048V124.08C46.696 123.072 47.584 122.292 48.712 121.74C49.864 121.188 51.148 120.912 52.564 120.912ZM83.7993 130.38C83.7993 131.004 83.7633 131.664 83.6913 132.36H67.9233C68.0433 134.304 68.7033 135.828 69.9033 136.932C71.1273 138.012 72.6033 138.552 74.3313 138.552C75.7473 138.552 76.9233 138.228 77.8593 137.58C78.8193 136.908 79.4913 136.02 79.8753 134.916H83.4033C82.8753 136.812 81.8193 138.36 80.2353 139.56C78.6513 140.736 76.6833 141.324 74.3313 141.324C72.4593 141.324 70.7793 140.904 69.2913 140.064C67.8273 139.224 66.6753 138.036 65.8353 136.5C64.9953 134.94 64.5753 133.14 64.5753 131.1C64.5753 129.06 64.9833 127.272 65.7993 125.736C66.6153 124.2 67.7553 123.024 69.2193 122.208C70.7073 121.368 72.4113 120.948 74.3313 120.948C76.2033 120.948 77.8593 121.356 79.2993 122.172C80.7393 122.988 81.8433 124.116 82.6113 125.556C83.4033 126.972 83.7993 128.58 83.7993 130.38ZM80.4153 129.696C80.4153 128.448 80.1393 127.38 79.5873 126.492C79.0353 125.58 78.2793 124.896 77.3193 124.44C76.3833 123.96 75.3393 123.72 74.1873 123.72C72.5313 123.72 71.1153 124.248 69.9393 125.304C68.7873 126.36 68.1273 127.824 67.9593 129.696H80.4153ZM91.3996 114.36V141H88.1236V114.36H91.3996ZM100.259 124.908C100.907 123.78 101.867 122.844 103.139 122.1C104.435 121.332 105.935 120.948 107.639 120.948C109.391 120.948 110.975 121.368 112.391 122.208C113.831 123.048 114.959 124.236 115.775 125.772C116.591 127.284 116.999 129.048 116.999 131.064C116.999 133.056 116.591 134.832 115.775 136.392C114.959 137.952 113.831 139.164 112.391 140.028C110.975 140.892 109.391 141.324 107.639 141.324C105.959 141.324 104.471 140.952 103.175 140.208C101.903 139.44 100.931 138.492 100.259 137.364V150.36H96.9829V121.272H100.259V124.908ZM113.651 131.064C113.651 129.576 113.351 128.28 112.751 127.176C112.151 126.072 111.335 125.232 110.303 124.656C109.295 124.08 108.179 123.792 106.955 123.792C105.755 123.792 104.639 124.092 103.607 124.692C102.599 125.268 101.783 126.12 101.159 127.248C100.559 128.352 100.259 129.636 100.259 131.1C100.259 132.588 100.559 133.896 101.159 135.024C101.783 136.128 102.599 136.98 103.607 137.58C104.639 138.156 105.755 138.444 106.955 138.444C108.179 138.444 109.295 138.156 110.303 137.58C111.335 136.98 112.151 136.128 112.751 135.024C113.351 133.896 113.651 132.576 113.651 131.064ZM147.901 121.272L136.021 150.288H132.637L136.525 140.784L128.569 121.272H132.205L138.397 137.256L144.517 121.272H147.901ZM159.798 141.324C157.95 141.324 156.27 140.904 154.758 140.064C153.27 139.224 152.094 138.036 151.23 136.5C150.39 134.94 149.97 133.14 149.97 131.1C149.97 129.084 150.402 127.308 151.266 125.772C152.154 124.212 153.354 123.024 154.866 122.208C156.378 121.368 158.07 120.948 159.942 120.948C161.814 120.948 163.506 121.368 165.018 122.208C166.53 123.024 167.718 124.2 168.582 125.736C169.47 127.272 169.914 129.06 169.914 131.1C169.914 133.14 169.458 134.94 168.546 136.5C167.658 138.036 166.446 139.224 164.91 140.064C163.374 140.904 161.67 141.324 159.798 141.324ZM159.798 138.444C160.974 138.444 162.078 138.168 163.11 137.616C164.142 137.064 164.97 136.236 165.594 135.132C166.242 134.028 166.566 132.684 166.566 131.1C166.566 129.516 166.254 128.172 165.63 127.068C165.006 125.964 164.19 125.148 163.182 124.62C162.174 124.068 161.082 123.792 159.906 123.792C158.706 123.792 157.602 124.068 156.594 124.62C155.61 125.148 154.818 125.964 154.218 127.068C153.618 128.172 153.318 129.516 153.318 131.1C153.318 132.708 153.606 134.064 154.182 135.168C154.782 136.272 155.574 137.1 156.558 137.652C157.542 138.18 158.622 138.444 159.798 138.444ZM191.717 121.272V141H188.441V138.084C187.817 139.092 186.941 139.884 185.813 140.46C184.709 141.012 183.485 141.288 182.141 141.288C180.605 141.288 179.225 140.976 178.001 140.352C176.777 139.704 175.805 138.744 175.085 137.472C174.389 136.2 174.041 134.652 174.041 132.828V121.272H177.281V132.396C177.281 134.34 177.773 135.84 178.757 136.896C179.741 137.928 181.085 138.444 182.789 138.444C184.541 138.444 185.921 137.904 186.929 136.824C187.937 135.744 188.441 134.172 188.441 132.108V121.272H191.717ZM198.293 141.216C197.669 141.216 197.141 141 196.709 140.568C196.277 140.136 196.061 139.608 196.061 138.984C196.061 138.36 196.277 137.832 196.709 137.4C197.141 136.968 197.669 136.752 198.293 136.752C198.893 136.752 199.397 136.968 199.805 137.4C200.237 137.832 200.453 138.36 200.453 138.984C200.453 139.608 200.237 140.136 199.805 140.568C199.397 141 198.893 141.216 198.293 141.216ZM205.851 141.216C205.227 141.216 204.699 141 204.267 140.568C203.835 140.136 203.619 139.608 203.619 138.984C203.619 138.36 203.835 137.832 204.267 137.4C204.699 136.968 205.227 136.752 205.851 136.752C206.451 136.752 206.955 136.968 207.363 137.4C207.795 137.832 208.011 138.36 208.011 138.984C208.011 139.608 207.795 140.136 207.363 140.568C206.955 141 206.451 141.216 205.851 141.216ZM213.41 141.216C212.786 141.216 212.258 141 211.826 140.568C211.394 140.136 211.178 139.608 211.178 138.984C211.178 138.36 211.394 137.832 211.826 137.4C212.258 136.968 212.786 136.752 213.41 136.752C214.01 136.752 214.514 136.968 214.922 137.4C215.354 137.832 215.57 138.36 215.57 138.984C215.57 139.608 215.354 140.136 214.922 140.568C214.514 141 214.01 141.216 213.41 141.216Z" fill="#0A5C49"/>
<path d="M80.472 47.328V92H71.512V72.992H52.376V92H43.416V47.328H52.376V65.696H71.512V47.328H80.472ZM122.251 73.504C122.251 74.784 122.166 75.936 121.995 76.96H96.075C96.2883 79.52 97.1843 81.5253 98.763 82.976C100.342 84.4267 102.283 85.152 104.587 85.152C107.915 85.152 110.283 83.7227 111.691 80.864H121.355C120.331 84.2773 118.368 87.0933 115.467 89.312C112.566 91.488 109.003 92.576 104.779 92.576C101.366 92.576 98.2937 91.8293 95.563 90.336C92.875 88.8 90.763 86.6453 89.227 83.872C87.7337 81.0987 86.987 77.8987 86.987 74.272C86.987 70.6027 87.7337 67.3813 89.227 64.608C90.7203 61.8347 92.811 59.7013 95.499 58.208C98.187 56.7147 101.28 55.968 104.779 55.968C108.15 55.968 111.158 56.6933 113.803 58.144C116.491 59.5947 118.56 61.664 120.011 64.352C121.504 66.9973 122.251 70.048 122.251 73.504ZM112.971 70.944C112.928 68.64 112.096 66.8053 110.475 65.44C108.854 64.032 106.87 63.328 104.523 63.328C102.304 63.328 100.427 64.0107 98.891 65.376C97.3977 66.6987 96.4803 68.5547 96.139 70.944H112.971ZM137.751 44.64V92H128.791V44.64H137.751ZM155.564 61.664C156.716 60.0427 158.294 58.6987 160.3 57.632C162.348 56.5227 164.673 55.968 167.276 55.968C170.305 55.968 173.036 56.7147 175.468 58.208C177.942 59.7013 179.884 61.8347 181.292 64.608C182.742 67.3387 183.468 70.5173 183.468 74.144C183.468 77.7707 182.742 80.992 181.292 83.808C179.884 86.5813 177.942 88.736 175.468 90.272C173.036 91.808 170.305 92.576 167.276 92.576C164.673 92.576 162.369 92.0427 160.364 90.976C158.401 89.9093 156.801 88.5653 155.564 86.944V108.896H146.604V56.544H155.564V61.664ZM174.316 74.144C174.316 72.0107 173.868 70.176 172.972 68.64C172.118 67.0613 170.966 65.8667 169.516 65.056C168.108 64.2453 166.572 63.84 164.908 63.84C163.286 63.84 161.75 64.2667 160.3 65.12C158.892 65.9307 157.74 67.1253 156.844 68.704C155.99 70.2827 155.564 72.1387 155.564 74.272C155.564 76.4053 155.99 78.2613 156.844 79.84C157.74 81.4187 158.892 82.6347 160.3 83.488C161.75 84.2987 163.286 84.704 164.908 84.704C166.572 84.704 168.108 84.2773 169.516 83.424C170.966 82.5707 172.118 81.3547 172.972 79.776C173.868 78.1973 174.316 76.32 174.316 74.144ZM220.973 92.576C217.559 92.576 214.487 91.8293 211.757 90.336C209.026 88.8 206.871 86.6453 205.293 83.872C203.757 81.0987 202.989 77.8987 202.989 74.272C202.989 70.6453 203.778 67.4453 205.357 64.672C206.978 61.8987 209.175 59.7653 211.949 58.272C214.722 56.736 217.815 55.968 221.229 55.968C224.642 55.968 227.735 56.736 230.509 58.272C233.282 59.7653 235.458 61.8987 237.037 64.672C238.658 67.4453 239.469 70.6453 239.469 74.272C239.469 77.8987 238.637 81.0987 236.972 83.872C235.351 86.6453 233.133 88.8 230.317 90.336C227.543 91.8293 224.429 92.576 220.973 92.576ZM220.973 84.768C222.594 84.768 224.109 84.384 225.517 83.616C226.967 82.8053 228.119 81.6107 228.973 80.032C229.826 78.4533 230.253 76.5333 230.253 74.272C230.253 70.9013 229.357 68.32 227.565 66.528C225.815 64.6933 223.661 63.776 221.101 63.776C218.541 63.776 216.386 64.6933 214.637 66.528C212.93 68.32 212.077 70.9013 212.077 74.272C212.077 77.6427 212.909 80.2453 214.573 82.08C216.279 83.872 218.413 84.768 220.973 84.768ZM256.473 63.904V81.056C256.473 82.2507 256.75 83.1253 257.305 83.68C257.902 84.192 258.884 84.448 260.249 84.448H264.409V92H258.777C251.225 92 247.449 88.3307 247.449 80.992V63.904H243.225V56.544H247.449V47.776H256.473V56.544H264.409V63.904H256.473ZM290.822 56.032C293.51 56.032 295.899 56.6293 297.99 57.824C300.08 58.976 301.702 60.704 302.854 63.008C304.048 65.2693 304.646 68 304.646 71.2V92H295.686V72.416C295.686 69.6 294.982 67.4453 293.574 65.952C292.166 64.416 290.246 63.648 287.814 63.648C285.339 63.648 283.376 64.416 281.926 65.952C280.518 67.4453 279.814 69.6 279.814 72.416V92H270.854V44.64H279.814V60.96C280.966 59.424 282.502 58.2293 284.422 57.376C286.342 56.48 288.475 56.032 290.822 56.032ZM346.126 73.504C346.126 74.784 346.041 75.936 345.87 76.96H319.95C320.163 79.52 321.059 81.5253 322.638 82.976C324.217 84.4267 326.158 85.152 328.462 85.152C331.79 85.152 334.158 83.7227 335.566 80.864H345.23C344.206 84.2773 342.243 87.0933 339.342 89.312C336.441 91.488 332.878 92.576 328.654 92.576C325.241 92.576 322.169 91.8293 319.438 90.336C316.75 88.8 314.638 86.6453 313.102 83.872C311.609 81.0987 310.862 77.8987 310.862 74.272C310.862 70.6027 311.609 67.3813 313.102 64.608C314.595 61.8347 316.686 59.7013 319.374 58.208C322.062 56.7147 325.155 55.968 328.654 55.968C332.025 55.968 335.033 56.6933 337.678 58.144C340.366 59.5947 342.435 61.664 343.886 64.352C345.379 66.9973 346.126 70.048 346.126 73.504ZM336.846 70.944C336.803 68.64 335.971 66.8053 334.35 65.44C332.729 64.032 330.745 63.328 328.398 63.328C326.179 63.328 324.302 64.0107 322.766 65.376C321.273 66.6987 320.355 68.5547 320.014 70.944H336.846ZM361.626 62.048C362.778 60.1707 364.271 58.6987 366.106 57.632C367.983 56.5653 370.117 56.032 372.506 56.032V65.44H370.138C367.322 65.44 365.189 66.1013 363.738 67.424C362.33 68.7467 361.626 71.0507 361.626 74.336V92H352.666V56.544H361.626V62.048ZM392.109 92.576C389.208 92.576 386.605 92.064 384.301 91.04C381.997 89.9733 380.162 88.544 378.797 86.752C377.474 84.96 376.749 82.976 376.621 80.8H385.645C385.816 82.1653 386.477 83.296 387.629 84.192C388.824 85.088 390.296 85.536 392.045 85.536C393.752 85.536 395.074 85.1947 396.013 84.512C396.994 83.8293 397.485 82.9547 397.485 81.888C397.485 80.736 396.888 79.8827 395.693 79.328C394.541 78.7307 392.685 78.0907 390.125 77.408C387.48 76.768 385.304 76.1067 383.597 75.424C381.933 74.7413 380.482 73.696 379.245 72.288C378.05 70.88 377.453 68.9813 377.453 66.592C377.453 64.6293 378.008 62.8373 379.117 61.216C380.269 59.5947 381.89 58.3147 383.981 57.376C386.114 56.4373 388.61 55.968 391.469 55.968C395.693 55.968 399.064 57.0347 401.581 59.168C404.098 61.2587 405.485 64.096 405.741 67.68H397.165C397.037 66.272 396.44 65.1627 395.373 64.352C394.349 63.4987 392.962 63.072 391.213 63.072C389.592 63.072 388.333 63.3707 387.437 63.968C386.584 64.5653 386.157 65.3973 386.157 66.464C386.157 67.6587 386.754 68.576 387.949 69.216C389.144 69.8133 391 70.432 393.517 71.072C396.077 71.712 398.189 72.3733 399.853 73.056C401.517 73.7387 402.946 74.8053 404.141 76.256C405.378 77.664 406.018 79.5413 406.061 81.888C406.061 83.936 405.485 85.7707 404.333 87.392C403.224 89.0133 401.602 90.2933 399.469 91.232C397.378 92.128 394.925 92.576 392.109 92.576Z" fill="#0A5C49"/>
</g>
<defs>
<filter id="filter0_d_2_9" x="-2.22803" y="0.640015" width="469.289" height="211.72" filterUnits="userSpaceOnUse" color-interpolation-filters="sRGB">
<feFlood flood-opacity="0" result="BackgroundImageFix"/>
<feColorMatrix in="SourceAlpha" type="matrix" values="0 0 0 0 0 0 0 0 0 0 0 0 0 0 0 0 0 0 127 0" result="hardAlpha"/>
<feOffset dx="8" dy="9"/>
<feGaussianBlur stdDeviation="26.5"/>
<feComposite in2="hardAlpha" operator="out"/>
<feColorMatrix type="matrix" values="0 0 0 0 0.0588235 0 0 0 0 0.568627 0 0 0 0 0.447059 0 0 0 0.2 0"/>
<feBlend mode="normal" in2="BackgroundImageFix" result="effect1_dropShadow_2_9"/>
<feBlend mode="normal" in="SourceGraphic" in2="effect1_dropShadow_2_9" result="shape"/>
</filter>
</defs>
</svg>
