<svg width="105" height="28" viewBox="0 0 105 28" fill="none" xmlns="http://www.w3.org/2000/svg">
<path d="M30.132 7.056L24.3 27H18.864L15.228 13.068L11.592 27H6.12L0.252 7.056H5.364L8.892 22.248L12.708 7.056H18.036L21.78 22.212L25.308 7.056H30.132ZM51.399 16.596C51.399 17.316 51.351 17.964 51.255 18.54H36.675C36.795 19.98 37.299 21.108 38.187 21.924C39.075 22.74 40.167 23.148 41.463 23.148C43.335 23.148 44.667 22.344 45.459 20.736H50.895C50.319 22.656 49.215 24.24 47.583 25.488C45.951 26.712 43.947 27.324 41.571 27.324C39.651 27.324 37.923 26.904 36.387 26.064C34.875 25.2 33.687 23.988 32.823 22.428C31.983 20.868 31.563 19.068 31.563 17.028C31.563 14.964 31.983 13.152 32.823 11.592C33.663 10.032 34.839 8.832 36.351 7.992C37.863 7.152 39.603 6.732 41.571 6.732C43.467 6.732 45.159 7.14 46.647 7.956C48.159 8.772 49.323 9.936 50.139 11.448C50.979 12.936 51.399 14.652 51.399 16.596ZM46.179 15.156C46.155 13.86 45.687 12.828 44.775 12.06C43.863 11.268 42.747 10.872 41.427 10.872C40.179 10.872 39.123 11.256 38.259 12.024C37.419 12.768 36.903 13.812 36.711 15.156H46.179ZM62.7098 27.324C61.0778 27.324 59.6138 27.036 58.3178 26.46C57.0218 25.86 55.9898 25.056 55.2218 24.048C54.4778 23.04 54.0698 21.924 53.9978 20.7H59.0738C59.1698 21.468 59.5418 22.104 60.1898 22.608C60.8618 23.112 61.6898 23.364 62.6738 23.364C63.6338 23.364 64.3778 23.172 64.9058 22.788C65.4578 22.404 65.7338 21.912 65.7338 21.312C65.7338 20.664 65.3978 20.184 64.7258 19.872C64.0778 19.536 63.0338 19.176 61.5938 18.792C60.1058 18.432 58.8818 18.06 57.9218 17.676C56.9858 17.292 56.1698 16.704 55.4738 15.912C54.8018 15.12 54.4658 14.052 54.4658 12.708C54.4658 11.604 54.7778 10.596 55.4018 9.684C56.0498 8.772 56.9618 8.052 58.1378 7.524C59.3378 6.996 60.7418 6.732 62.3498 6.732C64.7258 6.732 66.6218 7.332 68.0378 8.532C69.4538 9.708 70.2338 11.304 70.3778 13.32H65.5538C65.4818 12.528 65.1458 11.904 64.5458 11.448C63.9698 10.968 63.1898 10.728 62.2058 10.728C61.2938 10.728 60.5858 10.896 60.0818 11.232C59.6018 11.568 59.3618 12.036 59.3618 12.636C59.3618 13.308 59.6978 13.824 60.3698 14.184C61.0418 14.52 62.0858 14.868 63.5018 15.228C64.9418 15.588 66.1298 15.96 67.0658 16.344C68.0018 16.728 68.8058 17.328 69.4778 18.144C70.1738 18.936 70.5338 19.992 70.5578 21.312C70.5578 22.464 70.2338 23.496 69.5858 24.408C68.9618 25.32 68.0498 26.04 66.8498 26.568C65.6738 27.072 64.2938 27.324 62.7098 27.324ZM73.3989 16.956C73.3989 14.94 73.7949 13.152 74.5869 11.592C75.4029 10.032 76.4949 8.832 77.8629 7.992C79.2549 7.152 80.8029 6.732 82.5069 6.732C83.9949 6.732 85.2909 7.032 86.3949 7.632C87.5229 8.232 88.4229 8.988 89.0949 9.9V7.056H94.1709V27H89.0949V24.084C88.4469 25.02 87.5469 25.8 86.3949 26.424C85.2669 27.024 83.9589 27.324 82.4709 27.324C80.7909 27.324 79.2549 26.892 77.8629 26.028C76.4949 25.164 75.4029 23.952 74.5869 22.392C73.7949 20.808 73.3989 18.996 73.3989 16.956ZM89.0949 17.028C89.0949 15.804 88.8549 14.76 88.3749 13.896C87.8949 13.008 87.2469 12.336 86.4309 11.88C85.6149 11.4 84.7389 11.16 83.8029 11.16C82.8669 11.16 82.0029 11.388 81.2109 11.844C80.4189 12.3 79.7709 12.972 79.2669 13.86C78.7869 14.724 78.5469 15.756 78.5469 16.956C78.5469 18.156 78.7869 19.212 79.2669 20.124C79.7709 21.012 80.4189 21.696 81.2109 22.176C82.0269 22.656 82.8909 22.896 83.8029 22.896C84.7389 22.896 85.6149 22.668 86.4309 22.212C87.2469 21.732 87.8949 21.06 88.3749 20.196C88.8549 19.308 89.0949 18.252 89.0949 17.028ZM104.133 0.36V27H99.0934V0.36H104.133Z" fill="#0C6751"/>
</svg>
